<?xml version="1.0" encoding="UTF-8" standalone="no"?>
<!DOCTYPE svg PUBLIC "-//W3C//DTD SVG 1.1//EN" "http://www.w3.org/Graphics/SVG/1.1/DTD/svg11.dtd">
<svg width="100%" height="100%" viewBox="0 0 582 582" version="1.1" xmlns="http://www.w3.org/2000/svg" xmlns:xlink="http://www.w3.org/1999/xlink" xml:space="preserve" xmlns:serif="http://www.serif.com/" style="fill-rule:evenodd;clip-rule:evenodd;stroke-linejoin:round;stroke-miterlimit:2;">
    <g transform="matrix(4.16667,0,0,4.16667,0,0)">
        <g id="Layer_2">
            <g id="Layer_1-2">
                <g id="earth">
                    <g transform="matrix(0.699164,-0.714961,0.714961,0.699164,-28.91,70.93)">
                        <circle cx="69.82" cy="69.82" r="69.82" style="fill:white;fill-opacity:0.1;"/>
                    </g>
                    <g transform="matrix(0.765483,-0.643456,0.643456,0.765483,-28.55,61.3)">
                        <circle cx="69.82" cy="69.82" r="60.9" style="fill:rgb(91,203,245);"/>
                    </g>
                    <g>
                        <clipPath id="_clip1">
                            <path d="M30.636,23.202C56.365,1.574 94.812,4.904 116.44,30.633C138.068,56.363 134.738,94.81 109.009,116.438C83.279,138.065 44.832,134.736 23.204,109.006C1.577,83.277 4.907,44.83 30.636,23.202Z"/>
                        </clipPath>
                        <g clip-path="url(#_clip1)">
                            <path d="M2.63,74.4C2.691,59.198 9.329,44.743 20.82,34.79C32.311,24.837 19.54,38.79 27.07,37.1C34.6,35.41 33.37,38.75 33.07,40.53C32.77,42.31 28.67,41.35 25.97,40.7C23.27,40.05 15.78,41.92 13,46.8C10.22,51.68 7.74,55.7 9.46,56.54C11.18,57.38 15.79,48.88 18.46,46.79C21.13,44.7 21.7,47 20.88,51C20.06,55 21.76,57.48 25.56,56.68C29.36,55.88 32.62,53.3 32.56,51.83C32.5,50.36 25.72,46.53 32.66,44.75C39.6,42.97 44.86,40.9 44,47.92C43.14,54.94 42,62.92 43.84,65.29C45.68,67.66 48.84,68.18 48.12,69.07C47.4,69.96 45.68,69.57 44.43,69.28C43.18,68.99 40.3,70.99 39.43,72.6C38.56,74.21 37.83,78.24 40.79,78.91C43.75,79.58 44.86,77.13 47.45,76.37C50.04,75.61 54.59,77.37 54.88,78.37C55.17,79.37 52.78,79.85 49.31,78.46C45.84,77.07 44.86,80.83 42.78,81.88C40.7,82.93 39.18,83.76 34.87,82.25C30.56,80.74 26.3,82.98 23.36,82.5C14.89,81.2 11.94,77.2 9.6,76.24C7.317,75.451 4.976,74.836 2.6,74.4L2.63,74.4Z" style="fill:rgb(37,119,147);fill-rule:nonzero;"/>
                            <path d="M57.77,68.9C57.77,68.9 62.41,65.62 66.16,65.62C69.91,65.62 70.81,66.08 74.7,63.95C78.59,61.82 81.62,62.43 82.58,67.85C83.54,73.27 84.63,82.3 84.26,85.62C83.89,88.94 82.85,92.34 84.47,95.93C86.09,99.52 87.28,101.48 90.13,101.01C90.13,101.01 91.24,104.3 86.24,103.14C81.24,101.98 79.88,96.68 78.45,94.14C77.02,91.6 72.6,84.24 70.53,83.29C68.46,82.34 64.32,84.19 60.62,81.65C56.92,79.11 52.88,71.46 57.77,68.9Z" style="fill:rgb(37,119,147);fill-rule:nonzero;"/>
                            <path d="M106.07,17.4C107.3,21.7 103.43,22.97 99.44,26.15C94.32,30.23 89.24,29.8 83.58,32.15C78.33,34.37 76.42,40.32 76.86,45.63C77.19,49.57 78.95,57.63 83.04,59.06C85.044,59.632 87.142,59.795 89.21,59.54C92.202,59.439 95.181,59.105 98.12,58.54C101.48,57.81 105,56.49 108.24,57.65C110.91,58.65 112.74,61.06 114.08,63.55C117.72,70.39 116,79.75 125,82.09C128.284,82.987 131.801,82.394 134.61,80.47C135.86,56.097 125.228,32.569 106.11,17.4L106.07,17.4Z" style="fill:rgb(37,119,147);fill-rule:nonzero;"/>
                            <path d="M46.65,13.42C45.942,14.431 45.499,15.604 45.36,16.83C45.29,19.39 47.8,21.37 49.36,23.01C49.918,23.596 50.523,24.134 51.17,24.62C59.42,30.73 64.17,21.48 71.17,19.99C75.62,18.99 80.17,21.42 84.72,20.99C89.86,20.5 91.87,15.28 92.25,10.13C89.75,8.19 87.167,6.36 84.5,4.64C71.69,-3.62 54.5,0.13 46.72,13.25L46.65,13.42Z" style="fill:rgb(37,119,147);fill-rule:nonzero;"/>
                            <path d="M43.49,125.16C50.364,129.209 58.27,131.173 66.24,130.81C74.21,130.447 64.46,127.03 62.33,126.29C60.2,125.55 58.73,127.71 57.47,126.66C56.21,125.61 58.98,125.01 56.47,120.81C53.96,116.61 48.28,114.63 46.18,117.34C44.08,120.05 43.47,125.16 43.47,125.16L43.49,125.16Z" style="fill:rgb(37,119,147);fill-rule:nonzero;"/>
                            <path d="M108.53,88.17C109.84,88.47 110.61,86.1 113.07,89.35C115.53,92.6 114.66,94.11 116.64,95.12C118.62,96.13 117.64,98.85 117.15,98.97C116.66,99.09 114.99,99.71 114.09,100.07C113.19,100.43 110.72,101.15 110.01,100C109.3,98.85 109.63,97.93 108.01,96.79C106.39,95.65 106.01,96.15 104.73,96.06C103.45,95.97 103.38,94.63 102.03,95.76C100.68,96.89 98.03,99.58 97.79,97.88C97.562,96.547 97.78,95.176 98.41,93.98C99.03,92.41 97.85,94.12 99.03,92.41C100.21,90.7 99.5,90.7 101.03,90.12C102.56,89.54 108.53,88.17 108.53,88.17Z" style="fill:rgb(37,119,147);fill-rule:nonzero;"/>
                        </g>
                    </g>
                </g>
            </g>
        </g>
    </g>
</svg>
