<svg width="1440" height="900" viewBox="0 0 1440 900" fill="none" xmlns="http://www.w3.org/2000/svg">
<g clip-path="url(#clip0)">
<rect width="1440" height="900" fill="#F0F2F7"/>
<path d="M582.531 108.891C528.976 176.384 948.398 477.978 862.812 592.221C809.993 662.725 652.262 549.073 597.516 618.067C532.282 700.278 901.466 955.196 824.552 1052.13" stroke="#D9DBF1"/>
<path d="M511.768 66.0002C458.213 133.493 877.635 435.087 792.048 549.33C739.23 619.834 581.499 506.182 526.753 575.176C461.518 657.387 830.703 912.305 753.789 1009.24" stroke="#D9DBF1"/>
<path d="M438.768 17.0002C385.213 84.4925 804.635 386.087 719.048 500.33C666.23 570.834 508.499 457.182 453.753 526.176C388.518 608.387 757.703 863.305 680.789 960.236" stroke="#D9DBF1"/>
<path d="M1661.88 482.305C1562.97 355.573 1292.73 624.383 1126.61 416.287C1024.09 287.862 1126.01 186.975 1024.9 57.4231C904.404 -96.9471 679.815 148.863 537.752 -33.1454" stroke="#D9DBF1"/>
<path d="M1707.34 391.013C1608.33 264.165 1338.11 533.008 1171.85 324.72C1069.24 196.178 1171.15 95.2784 1069.94 -34.3912C949.337 -188.902 724.779 56.9482 582.586 -125.226" stroke="#D9DBF1"/>
<path d="M1752.17 298.933C1653.25 172.201 1383.01 441.01 1216.9 232.914C1114.38 104.49 1216.3 3.60217 1115.18 -125.949C994.69 -280.32 770.101 -34.5093 628.037 -216.518" stroke="#D9DBF1"/>
<path d="M912 983.5C1006 983.5 979.322 605.407 1135 602.5C1231.07 600.706 1240.91 743 1337 743C1451.5 743 1419 415 1554 415" stroke="#D9DBF1"/>
<path d="M938 1075.5C1032 1075.5 1005.32 697.407 1161 694.5C1257.07 692.706 1266.91 835 1363 835C1477.5 835 1445 507 1580 507" stroke="#D9DBF1"/>
<path d="M964 1167.5C1058 1167.5 1031.32 789.407 1187 786.5C1283.07 784.706 1292.91 927 1389 927C1503.5 927 1471 599 1606 599" stroke="#D9DBF1"/>
</g>
<defs>
<clipPath id="clip0">
<rect width="1440" height="900" fill="white"/>
</clipPath>
</defs>
</svg>
