<?xml version="1.0" encoding="UTF-8" standalone="no"?><!DOCTYPE svg PUBLIC "-//W3C//DTD SVG 1.1//EN" "http://www.w3.org/Graphics/SVG/1.1/DTD/svg11.dtd"><svg width="100%" height="100%" viewBox="0 0 2084 1553" version="1.1" xmlns="http://www.w3.org/2000/svg" xmlns:xlink="http://www.w3.org/1999/xlink" xml:space="preserve" xmlns:serif="http://www.serif.com/" style="fill-rule:evenodd;clip-rule:evenodd;stroke-linejoin:round;stroke-miterlimit:2;"><g><g id="Background-Complete" serif:id="Background Complete"><rect x="0" y="1364.36" width="2083.33" height="1.038" style="fill:#ececec;"/><rect x="1736.58" y="1431.43" width="138.008" height="1.042" style="fill:#ececec;"/><rect x="1343.86" y="1442.73" width="36.221" height="1.042" style="fill:#ececec;"/><rect x="1652.44" y="1392.73" width="79.967" height="1.042" style="fill:#ececec;"/><rect x="218.579" y="1399.74" width="179.971" height="1.042" style="fill:#ececec;"/><rect x="435.65" y="1399.74" width="26.387" height="1.042" style="fill:#ececec;"/><rect x="547.796" y="1417.33" width="390.317" height="1.042" style="fill:#ececec;"/><path d="M182.979,1.042c-12.542,-0 -22.742,10.2 -22.742,22.741l0,1130.96c0,12.542 10.2,22.742 22.742,22.742l804.579,-0c12.534,-0 22.738,-10.2 22.738,-22.742l-0,-1130.96c-0,-12.541 -10.204,-22.741 -22.738,-22.741l-804.579,-0Zm804.579,1177.49l-804.579,0c-13.112,0 -23.783,-10.667 -23.783,-23.783l-0,-1130.96c-0,-13.112 10.671,-23.783 23.783,-23.783l804.579,-0c13.109,-0 23.779,10.671 23.779,23.783l0,1130.96c0,13.116 -10.67,23.783 -23.779,23.783" style="fill:#ececec;fill-rule:nonzero;"/><path d="M1084.22,1.042c-12.537,-0 -22.737,10.2 -22.737,22.741l-0,1130.96c-0,12.542 10.2,22.742 22.737,22.742l804.579,-0c12.538,-0 22.742,-10.2 22.742,-22.742l0,-1130.96c0,-12.541 -10.204,-22.741 -22.742,-22.741l-804.579,-0Zm804.579,1177.49l-804.579,0c-13.108,0 -23.779,-10.667 -23.779,-23.783l0,-1130.96c0,-13.112 10.671,-23.783 23.779,-23.783l804.579,-0c13.113,-0 23.784,10.671 23.784,23.783l-0,1130.96c-0,13.116 -10.671,23.783 -23.784,23.783" style="fill:#ececec;fill-rule:nonzero;"/><rect x="278.321" y="169.406" width="565.412" height="1194.95" style="fill:#e7e7e7;"/><rect x="265.754" y="169.406" width="565.412" height="1194.95" style="fill:#f5f5f5;"/><rect x="288.308" y="194.743" width="520.304" height="1144.28" style="fill:#fafafa;"/><path d="M688.782,1339.02l-131.805,-1144.28l-148.837,-0l131.808,1144.28l148.834,0Z" style="fill:#fff;fill-rule:nonzero;"/><rect x="288.308" y="194.743" width="9.5" height="1144.28" style="fill:#e7e7e7;"/><rect x="275.083" y="293.856" width="546.754" height="34.013" style="fill:#f5f5f5;"/><rect x="914.321" y="671.022" width="228.287" height="693.333" style="fill:#f0f0f0;"/><rect x="926.854" y="691.289" width="203.225" height="203.225" style="fill:#f5f5f5;"/><rect x="926.854" y="912.756" width="203.225" height="203.225" style="fill:#f5f5f5;"/><rect x="926.854" y="1134.23" width="203.225" height="203.225" style="fill:#f5f5f5;"/><path d="M1073.45,688.599l-89.963,-0c0,11.637 9.434,21.071 21.075,21.071l47.817,-0c11.638,-0 21.071,-9.434 21.071,-21.071" style="fill:#e7e7e7;fill-rule:nonzero;"/><path d="M1073.45,910.067l-89.963,0c0,11.638 9.434,21.071 21.075,21.071l47.817,-0c11.638,-0 21.071,-9.433 21.071,-21.071" style="fill:#e7e7e7;fill-rule:nonzero;"/><path d="M1073.45,1131.54l-89.963,-0c0,11.637 9.434,21.071 21.075,21.071l47.817,-0c11.638,-0 21.071,-9.434 21.071,-21.071" style="fill:#e7e7e7;fill-rule:nonzero;"/><rect x="1142.61" y="671.022" width="114.021" height="693.333" style="fill:#f5f5f5;"/><rect x="1752.03" y="825.343" width="63.296" height="521.979" style="fill:#f0f0f0;"/><rect x="1198.81" y="1347.32" width="607.746" height="17.033" style="fill:#f0f0f0;"/><rect x="1190.04" y="825.343" width="561.992" height="521.979" style="fill:#fafafa;"/><path d="M1642.01,1012.7c31.313,-0 56.788,25.475 56.788,56.783c-0,31.312 -25.475,56.787 -56.788,56.787l-341.933,0c-31.313,0 -56.788,-25.475 -56.788,-56.787c0,-31.308 25.475,-56.783 56.788,-56.783l341.933,-0Zm-341.933,117.658l341.933,-0c33.567,-0 60.871,-27.308 60.871,-60.875c0,-33.563 -27.304,-60.871 -60.871,-60.871l-341.933,0c-33.567,0 -60.875,27.308 -60.875,60.871c-0,33.567 27.308,60.875 60.875,60.875" style="fill:#f0f0f0;fill-rule:nonzero;"/><path d="M1642.01,1164.14c31.313,0 56.788,25.475 56.788,56.783c-0,31.313 -25.475,56.788 -56.788,56.788l-341.933,-0c-31.313,-0 -56.788,-25.475 -56.788,-56.788c0,-31.308 25.475,-56.783 56.788,-56.783l341.933,0Zm-341.933,117.658l341.933,0c33.567,0 60.871,-27.308 60.871,-60.875c0,-33.562 -27.304,-60.87 -60.871,-60.87l-341.933,-0c-33.567,-0 -60.875,27.308 -60.875,60.87c-0,33.567 27.308,60.875 60.875,60.875" style="fill:#f0f0f0;fill-rule:nonzero;"/><path d="M1419.44,1056.36l103.191,-0c6.984,-0 12.7,-5.717 12.7,-12.7c0,-6.988 -5.716,-12.7 -12.7,-12.7l-103.191,-0c-6.984,-0 -12.7,5.712 -12.7,12.7c-0,6.983 5.716,12.7 12.7,12.7" style="fill:#ececec;fill-rule:nonzero;"/><path d="M1642.01,861.257c31.313,0 56.788,25.475 56.788,56.783c-0,31.313 -25.475,56.788 -56.788,56.788l-341.933,-0c-31.313,-0 -56.788,-25.475 -56.788,-56.788c0,-31.308 25.475,-56.783 56.788,-56.783l341.933,0Zm-341.933,117.658l341.933,0c33.567,0 60.871,-27.308 60.871,-60.875c0,-33.562 -27.304,-60.87 -60.871,-60.87l-341.933,-0c-33.567,-0 -60.875,27.308 -60.875,60.87c-0,33.567 27.308,60.875 60.875,60.875" style="fill:#f0f0f0;fill-rule:nonzero;"/><path d="M1419.44,904.913l103.191,0c6.984,0 12.7,-5.716 12.7,-12.7c0,-6.987 -5.716,-12.7 -12.7,-12.7l-103.191,0c-6.984,0 -12.7,5.713 -12.7,12.7c-0,6.984 5.716,12.7 12.7,12.7" style="fill:#ececec;fill-rule:nonzero;"/><path d="M1419.44,1207.8l103.191,0c6.984,0 12.7,-5.716 12.7,-12.7c0,-6.987 -5.716,-12.7 -12.7,-12.7l-103.191,0c-6.984,0 -12.7,5.713 -12.7,12.7c-0,6.984 5.716,12.7 12.7,12.7" style="fill:#ececec;fill-rule:nonzero;"/><rect x="1178.48" y="798.81" width="573.55" height="26.533" style="fill:#f0f0f0;"/><rect x="1752.04" y="798.81" width="75.696" height="26.533" style="fill:#e7e7e7;"/><path d="M1341.77,380.98c12.78,6.412 47.446,-0.475 35.892,22.983c-5.433,11.029 -14.275,22.8 -23.692,34.417c-12.908,15.92 -10.47,33.191 4.771,39.466c3.7,1.521 6.721,3.409 8.429,5.859c7.021,10.062 -9.562,23.562 -17.704,33.641c-7.866,9.738 -11.429,20 -5.408,27.504c6.646,8.28 20.487,5.234 31.479,7.738c26.442,6.012 -0.75,42.475 2.058,61.208c1.921,12.825 12.321,16.4 26.45,18.213c11.53,1.479 26.913,2.512 27.555,14.329c0.554,10.225 -12.763,21.817 -16.255,32.567c-3.395,10.445 -2.237,20.595 2.559,28.325c4.291,6.908 11.375,11.583 20.75,13.579c13.096,2.783 32.904,-0.104 33.846,14.666c0.42,6.6 -4.175,12.438 -0.98,18.513c2.696,5.129 8.825,7.721 15.367,9.033c10.521,2.109 25.688,1.542 37.746,-0.671c15.371,-2.812 38.062,-16.362 29.725,-29.42c-2.338,-3.663 -6.842,-5.796 -11.888,-6.825c-3.687,-0.755 -14.425,0.412 -15.808,-2.08c-1.383,-2.5 2.325,-12.1 2.479,-15.595c0.454,-10.042 -1.346,-19.48 -4.475,-28.192c-4.258,-11.825 -10.983,-22.45 -19.846,-31.429c-3.633,-3.684 -9.458,-6.392 -10.2,-11.763c-0.708,-5.129 2.638,-11.308 6.371,-16.558c5.884,-8.271 14.996,-16.183 18.296,-25.046c5.183,-13.921 -7.375,-18.337 -19,-21.5c-10.508,-2.858 -24.337,-6.537 -20.771,-19.296c2.579,-9.216 14.192,-16.758 17.671,-25.741c4.667,-12.059 -6.712,-12.53 -14.875,-16.838c-10.587,-5.587 -13.262,-15.562 -9.421,-28.212c6.338,-20.846 44.554,-50.271 24.992,-63.821c-4.967,-3.446 -9.575,-4.6 -12.563,-9.775c-3.195,-5.529 -3.662,-12.417 -7.816,-17.438c-6.588,-7.966 -20.2,-9.304 -27.313,-16.696c-14.596,-15.162 16.929,-42.062 -11.846,-48.458c-6.575,-1.462 -12.404,-2.85 -16.808,-6.954c-2.637,-2.458 -4.767,-14.346 -7.742,-15.175c-13.195,-3.683 -37.012,21.937 -44.491,29.846c-9.096,9.621 -42.796,37.937 -27.534,45.596" style="fill:#e1e1e1;fill-rule:nonzero;"/><path d="M1568.28,734.39c-7.846,-14.505 -42.117,-28.992 -19.367,-45.834c10.696,-7.916 24.8,-14.479 39.33,-20.525c19.908,-8.287 27.004,-27.483 16.912,-43.375c-2.45,-3.858 -4.104,-7.666 -4.304,-11.237c-0.804,-14.667 21.054,-18.188 33.629,-23.454c12.154,-5.084 20.788,-13.38 19.492,-24.805c-1.429,-12.604 -15.275,-18.091 -23.629,-27.475c-20.117,-22.587 23.395,-43.033 30.945,-63.966c5.167,-14.325 -2.095,-24.446 -13.591,-35.079c-9.379,-8.675 -22.4,-19.292 -16.642,-31.788c4.983,-10.817 22.938,-14.417 31.775,-23.25c8.588,-8.587 13,-19.7 12.9,-30.6c-0.087,-9.737 -3.833,-18.925 -11.042,-26.792c-10.062,-10.987 -29.083,-20.333 -22.008,-36.045c3.163,-7.017 10.342,-10.146 10.771,-18.35c0.367,-6.93 -3.654,-13.392 -8.725,-18.796c-8.15,-8.692 -21.838,-17.534 -33.658,-22.763c-15.071,-6.666 -42.346,-6.891 -41.98,11.663c0.1,5.204 2.934,10.183 6.834,14.375c2.854,3.062 12.954,8.537 12.837,11.95c-0.116,3.416 -8.525,10.946 -10.537,14.429c-5.775,10.004 -9.238,20.783 -11.134,31.65c-2.575,14.754 -2.333,29.812 0.684,44.512c1.233,6.03 4.925,12.421 2.704,18.384c-2.117,5.691 -8.379,9.941 -14.483,12.996c-9.621,4.816 -21.896,7.258 -29.55,14.283c-12.025,11.033 -3.309,23.358 5.254,33.817c7.746,9.458 17.979,21.816 8,32.666c-7.209,7.838 -21.492,8.346 -29.371,15.384c-10.571,9.445 -0.783,17 4.112,26.483c6.355,12.3 3.375,24.171 -6.787,34.737c-16.75,17.413 -66.217,23.8 -56.213,49.834c2.542,6.612 5.988,10.658 5.855,17.812c-0.138,7.65 -3.417,14.992 -2.438,22.713c1.55,12.25 12.846,22.075 15.163,34.066c4.762,24.592 -37.455,32.55 -15.488,56.984c5.021,5.579 9.421,10.621 11.113,17.558c1.008,4.154 -3.475,17.654 -1.292,20.35c9.671,11.967 44.4,0.525 55.229,-2.925c13.179,-4.2 58.071,-12.262 48.7,-29.587" style="fill:#f5f5f5;fill-rule:nonzero;"/><path d="M1656.12,701.634c-0,-0 -4.15,97.175 -163.242,97.175c-159.088,-0 -163.238,-97.175 -163.238,-97.175l326.48,-0Z" style="fill:#f0f0f0;fill-rule:nonzero;"/></g><g id="Shadow"><path d="M1849.54,1505.36c0,26.058 -361.696,47.183 -807.871,47.183c-446.174,0 -807.87,-21.125 -807.87,-47.183c-0,-26.054 361.696,-47.179 807.87,-47.179c446.175,-0 807.871,21.125 807.871,47.179" style="fill:#f5f5f5;fill-rule:nonzero;"/></g><g id="Hourglass"><g opacity="0.2"><path d="M1503.04,1470.47l-265.375,-490.471l-265.375,490.471l530.75,0Z" style="fill:#007cff;fill-rule:nonzero;"/><path d="M1503.04,640.698l-265.375,490.471l-265.375,-490.471l530.75,0Z" style="fill:#007cff;fill-rule:nonzero;"/></g><path d="M1286.27,930.263l-38.829,71.771c-4.208,7.771 -15.354,7.771 -19.562,0l-38.83,-71.771c-15.32,-28.312 5.184,-62.716 37.375,-62.716l22.471,-0c32.192,-0 52.696,34.404 37.375,62.716" style="fill:#007cff;fill-rule:nonzero;"/><path d="M1241.89,1346.65l120.462,49.567c11.263,4.638 7.95,21.404 -4.229,21.404l-240.921,0c-12.183,0 -15.5,-16.766 -4.233,-21.4l120.458,-49.571c2.713,-1.116 5.754,-1.116 8.463,0" style="fill:#007cff;fill-rule:nonzero;"/><path d="M1253.11,1236.85c-0,8.529 -6.917,15.45 -15.45,15.45c-8.529,0 -15.446,-6.921 -15.446,-15.45c-0,-8.533 6.917,-15.45 15.446,-15.45c8.533,0 15.45,6.917 15.45,15.45" style="fill:#007cff;fill-rule:nonzero;"/><path d="M1245.62,1075.4c-0,4.4 -3.563,7.962 -7.963,7.962c-4.4,0 -7.962,-3.562 -7.962,-7.962c-0,-4.4 3.562,-7.963 7.962,-7.963c4.4,0 7.963,3.563 7.963,7.963" style="fill:#007cff;fill-rule:nonzero;"/><path d="M1246.71,1152.38c0,5 -4.054,9.055 -9.054,9.055c-5,-0 -9.054,-4.055 -9.054,-9.055c-0,-5 4.054,-9.054 9.054,-9.054c5,0 9.054,4.054 9.054,9.054" style="fill:#007cff;fill-rule:nonzero;"/><path d="M1501.69,1446.3l-528.058,-0c-13.296,-0 -24.175,10.875 -24.175,24.17c0,13.296 10.879,24.175 24.175,24.175l528.058,0c13.296,0 24.171,-10.879 24.171,-24.175c0,-13.295 -10.875,-24.17 -24.171,-24.17" style="fill:#007cff;fill-rule:nonzero;"/><path d="M1501.69,616.525l-528.058,-0c-13.296,-0 -24.175,10.879 -24.175,24.175c0,13.295 10.879,24.17 24.175,24.17l528.058,0c13.296,0 24.171,-10.875 24.171,-24.17c0,-13.296 -10.875,-24.175 -24.171,-24.175" style="fill:#007cff;fill-rule:nonzero;"/></g><g id="Character"><path d="M810.948,1461.35l-29.38,-9.538l18.263,-69.279l29.383,9.538l-18.267,69.279Z" style="fill:#ff8c7b;fill-rule:nonzero;"/><path d="M781.13,1447.91l33.008,10.712c1.2,0.388 1.838,1.517 1.529,2.713l-6.875,26.633c-0.712,2.762 -4.087,4.504 -6.837,3.558c-11.429,-3.929 -16.7,-6.383 -31.217,-11.096c-8.929,-2.9 -38.366,-10.504 -50.696,-14.504c-12.062,-3.916 -8.024,-16.083 -2.441,-15.491c25.046,2.654 47.471,1.462 57.883,-2.363c1.879,-0.687 3.892,-0.733 5.646,-0.162" style="fill:#1a2e35;fill-rule:nonzero;"/><g opacity="0.2"><path d="M829.215,1392.09l-29.395,-9.542l-9.4,35.717l29.395,9.542l9.4,-35.717Z" style="fill-rule:nonzero;"/></g><path d="M909.485,690.705c-0,-0 -52.713,243.954 -65.075,331.666c-13.538,96.054 -64.396,384.471 -64.396,384.471l54.533,15.063c0,-0 75.571,-279.721 97.646,-373.096c23.959,-101.342 87.688,-358.104 87.688,-358.104l-110.396,-0Z" style="fill:#007cff;fill-rule:nonzero;"/><g opacity="0.3"><path d="M974.673,770.697c-20.792,47.25 -31.125,150.167 -23.042,197.292c14.75,-60.625 32.5,-132.709 46.208,-188.167c-4.625,-16.083 -12.291,-33.833 -23.166,-9.125" style="fill-rule:nonzero;"/></g><path d="M835.928,1422.98l-58.413,-16.092l1.129,-23.791l65.767,22.741l-8.484,17.142Z" style="fill:#1a2e35;fill-rule:nonzero;"/><path d="M775.665,1449.54c-5.595,-0.658 -9.412,-2.079 -10.341,-3.887c-0.388,-0.75 -0.288,-1.6 0.308,-2.604c0.275,-0.459 0.613,-0.688 1.067,-0.713c2.179,-0.133 6.262,3.929 8.966,7.204m-6.608,0.113c2.713,0.883 5.896,1.296 8.171,1.491c0.279,0.025 0.55,-0.12 0.687,-0.37c0.138,-0.25 0.117,-0.555 -0.054,-0.78c-0.729,-0.958 -7.2,-9.341 -11.246,-9.095c-0.937,0.054 -1.708,0.545 -2.225,1.42c-0.85,1.442 -0.966,2.788 -0.345,3.996c0.791,1.534 2.733,2.6 5.012,3.338" style="fill:#1a2e35;fill-rule:nonzero;"/><path d="M776.915,1437.9c0.57,0.183 0.987,0.537 1.275,1.079c1.22,2.275 -0.113,7.192 -1.1,9.958c-1.855,-2.987 -3.259,-8.596 -2.13,-10.55c0.213,-0.375 0.592,-0.775 1.63,-0.575c0.112,0.025 0.225,0.054 0.325,0.088m0.15,13.208c0.108,0.038 0.225,0.046 0.337,0.029c0.246,-0.041 0.454,-0.204 0.55,-0.433c0.142,-0.346 3.546,-8.583 1.508,-12.404c-0.55,-1.029 -1.42,-1.667 -2.591,-1.896c-1.409,-0.275 -2.529,0.175 -3.159,1.267c-1.716,2.983 0.675,10.537 3.034,13.233c0.087,0.1 0.2,0.167 0.321,0.204" style="fill:#1a2e35;fill-rule:nonzero;"/><path d="M965.58,459.092c-1.6,3.725 -2.904,6.55 -4.387,9.734c-1.458,3.083 -3.013,6.091 -4.554,9.1c-3.109,6.004 -6.342,11.916 -9.713,17.775c-6.833,11.658 -14.187,23.087 -22.504,34.066c-8.246,11.03 -17.321,21.696 -27.729,31.659c-10.325,10 -22.158,19.275 -36.15,26.712l-1.046,0.554c-1.683,0.896 -3.537,1.55 -5.312,1.938c-10.038,2.146 -20.221,1.333 -28.63,-1.146c-8.491,-2.45 -15.591,-6.146 -21.845,-10.142c-12.446,-8.087 -21.746,-17.662 -30.184,-27.35c-8.296,-9.812 -15.479,-19.991 -21.929,-30.479c-6.45,-10.587 -12.146,-21.037 -17.229,-32.671c-2.983,-6.833 0.133,-14.787 6.967,-17.77c5.654,-2.475 12.083,-0.759 15.82,3.783l0.409,0.5c6.883,8.375 14.337,17.225 21.841,25.312c7.534,8.159 15.28,15.959 23.267,22.834c7.875,6.921 16.246,12.891 23.917,16.666c3.812,1.863 7.437,3.034 10.271,3.396c2.879,0.35 4.675,0.079 6.004,-0.508l-6.354,2.496c8.054,-5.221 15.925,-12.329 23.379,-20.417c7.421,-8.133 14.421,-17.216 21.033,-26.771c6.579,-9.583 12.813,-19.641 18.713,-29.945c2.97,-5.142 5.845,-10.363 8.583,-15.63l4.025,-7.904c1.292,-2.521 2.729,-5.421 3.708,-7.496l0.263,-0.55c6.391,-13.52 22.537,-19.3 36.058,-12.904c13.204,6.246 19,21.838 13.308,35.159" style="fill:#1a2e35;fill-rule:nonzero;"/><g opacity="0.3"><path d="M897.467,515.666c13.083,-34.75 40.875,-35.334 52.917,-26.125c-0.875,1.625 -1.792,3.25 -2.709,4.875c-6.5,11.291 -13.625,22.291 -21.458,32.958c-7.833,10.625 -16.417,21 -26.125,30.75c-3,2.958 -6.083,5.875 -9.292,8.708c-0.666,-16.375 0.584,-34.916 6.667,-51.166" style="fill-rule:nonzero;"/></g><path d="M733.238,491.005l-27.071,0.963l6.771,-28.917c-0,0 16.112,0.654 27.612,4.013c6.971,2.033 9.817,10.408 5.855,16.487l-0.017,0.025c-2.913,4.467 -7.817,7.242 -13.15,7.429" style="fill:#ff8c7b;fill-rule:nonzero;"/><path d="M748.497,466.512c-2.238,-1.783 -5.163,-3.471 -8.938,-4.608c-2.283,11.816 -16.517,31.812 -16.517,31.812l11.28,0c2.954,0 5.758,-1.312 7.654,-3.583l7.9,-9.463c3.571,-4.279 2.979,-10.683 -1.379,-14.158" style="fill:#007cff;fill-rule:nonzero;"/><path d="M685.488,478.666l7.617,-20.425l19.833,4.809l-6.771,28.916l-20.679,-13.3Z" style="fill:#ff8c7b;fill-rule:nonzero;"/><path d="M1026.04,1474.87l-30.892,-0l-1.063,-71.534l30.888,0l1.067,71.534Z" style="fill:#ff8c7b;fill-rule:nonzero;"/><path d="M993.533,1471.29l34.704,0c1.262,0 2.212,0.879 2.287,2.109l1.683,27.458c0.175,2.85 -2.495,5.546 -5.404,5.496c-12.083,-0.209 -17.854,-0.921 -33.116,-0.921c-9.388,-0 -40.775,0.975 -53.738,0.975c-12.683,-0 -12.596,-12.821 -7.1,-13.979c24.638,-5.209 46.642,-12.388 55.363,-19.238c1.575,-1.233 3.475,-1.9 5.321,-1.9" style="fill:#1a2e35;fill-rule:nonzero;"/><g opacity="0.2"><path d="M1024.98,1403.35l-30.904,-0l0.566,36.875l30.904,-0l-0.566,-36.875Z" style="fill-rule:nonzero;"/></g><path d="M969.749,690.705c-0,-0 -11.796,268.383 -6.788,356.82c5.488,96.846 17.009,383.8 17.009,383.8l56.579,0c-0,0 14.262,-279.133 17.671,-375.02c3.7,-104.071 20.475,-365.6 20.475,-365.6l-104.946,-0Z" style="fill:#007cff;fill-rule:nonzero;"/><path d="M1038.83,1431.32l-61.138,0l-4.658,-22.737l67.479,3.358l-1.683,19.379Z" style="fill:#1a2e35;fill-rule:nonzero;"/><path d="M988.837,1474.52c-5.525,1.104 -9.596,0.933 -11.038,-0.504c-0.596,-0.592 -0.767,-1.433 -0.508,-2.571c0.116,-0.525 0.366,-0.846 0.791,-1.008c2.034,-0.796 7.171,1.804 10.755,4.083m-6.25,2.15c2.85,0 6.008,-0.587 8.229,-1.108c0.279,-0.059 0.491,-0.279 0.541,-0.559c0.055,-0.283 -0.062,-0.566 -0.295,-0.729c-0.988,-0.683 -9.73,-6.662 -13.505,-5.179c-0.87,0.338 -1.45,1.046 -1.67,2.038c-0.367,1.633 -0.067,2.95 0.9,3.908c1.225,1.217 3.404,1.629 5.8,1.629" style="fill:#1a2e35;fill-rule:nonzero;"/><path d="M986.43,1463.06c0.6,-0 1.108,0.208 1.546,0.633c1.862,1.792 2.112,6.879 2.029,9.813c-2.683,-2.271 -5.75,-7.167 -5.283,-9.375c0.087,-0.421 0.325,-0.921 1.375,-1.05c0.116,-0.013 0.229,-0.021 0.333,-0.021m4.225,12.521c0.112,-0 0.225,-0.025 0.329,-0.08c0.221,-0.116 0.367,-0.329 0.388,-0.579c0.029,-0.375 0.72,-9.258 -2.396,-12.262c-0.838,-0.813 -1.867,-1.146 -3.054,-1.004c-1.421,0.17 -2.346,0.945 -2.609,2.179c-0.708,3.366 3.896,9.816 6.971,11.646c0.117,0.07 0.242,0.1 0.371,0.1" style="fill:#1a2e35;fill-rule:nonzero;"/><path d="M1090.18,441.608c1.95,-10.929 -5.525,-21.288 -16.504,-22.892l-0.358,-0.054c-9.959,-1.458 -22.463,-2.958 -34.708,-3.542c-21.084,-1 -51.63,-1.666 -70.213,0c-10.788,1 -21.333,2.792 -29.75,4.417c-0.108,0.021 -0.212,0.046 -0.321,0.067c-10.725,2.171 -19.362,10.1 -22.475,20.591c-10.071,33.971 -22.087,103.3 -6.371,250.509l165.213,-0c1.162,-14.75 -2.125,-62.742 0.291,-123.875c1.838,-46.575 10.125,-96.767 15.196,-125.221" style="fill:#1a2e35;fill-rule:nonzero;"/><g opacity="0.3"><path d="M1088.59,450.708c-3.43,19.759 -7.655,46.604 -10.567,74.863c-0,-0 -15.071,-29.571 -17.817,-54.879c-2.746,-25.305 18.808,-27.084 28.383,-19.984" style="fill-rule:nonzero;"/></g><g opacity="0.2"><path d="M977.783,454.602c-0.566,0 -1.112,-0.308 -1.387,-0.842c-0.4,-0.766 -0.096,-1.712 0.666,-2.108l51.505,-26.704c0.77,-0.396 1.712,-0.1 2.104,0.667c0.4,0.766 0.1,1.712 -0.667,2.108l-51.5,26.704c-0.233,0.117 -0.475,0.175 -0.721,0.175" style="fill:#fff;fill-rule:nonzero;"/><path d="M1001.38,457.044c-0.4,-0 -0.795,-0.15 -1.104,-0.454l-28.212,-28.075c-0.613,-0.609 -0.617,-1.596 -0.004,-2.209c0.604,-0.612 1.595,-0.616 2.208,-0.004l28.217,28.071c0.608,0.608 0.612,1.6 0.004,2.212c-0.309,0.305 -0.704,0.459 -1.109,0.459" style="fill:#fff;fill-rule:nonzero;"/><path d="M1038.59,415.115c-21.083,-1 -51.625,-1.667 -70.166,-0c-0.375,0.041 -0.792,0.083 -1.167,0.125c-0.667,2.75 -1.292,7.875 1.792,12.791c3.916,6.25 12.125,9.75 24.458,10.417c1.583,0.083 3.125,0.125 4.625,0.125c33.542,-0 46.208,-20.25 46.75,-21.125l1.167,-1.875c-2.5,-0.167 -4.959,-0.333 -7.459,-0.458" style="fill:#fff;fill-rule:nonzero;"/></g><path d="M971.737,414.873c20.416,-4.834 24,-17.459 22.625,-31.334c-0.292,-3.375 -0.875,-6.875 -1.625,-10.333l25.583,-21.25l18.792,-15.583c-5.209,22.625 -11.084,63.833 4.208,78.916c-0,0 -12.658,20.863 -47.604,18.979c-29.513,-1.595 -21.979,-19.395 -21.979,-19.395" style="fill:#ff8c7b;fill-rule:nonzero;"/><g opacity="0.2"><path d="M992.735,373.204c0.75,3.458 1.333,6.958 1.625,10.333c9.541,-1.917 22.291,-12.083 23.625,-21.833c0.5,-3.667 0.583,-7.209 0.333,-9.75l-25.583,21.25Z" style="fill-rule:nonzero;"/></g><path d="M979.055,264.781c-13.888,8.158 -11.675,29.179 -15.45,44.096c8.854,0.87 22.762,-14.834 22.762,-14.834l8.313,-23.879l-15.625,-5.383Z" style="fill:#1a2e35;fill-rule:nonzero;"/><path d="M1052.97,306.692c-8.875,29.429 -12.571,47.054 -31.338,59.32c-28.225,18.459 -62.042,-2.587 -62.179,-33.762c-0.129,-28.063 14.408,-71.479 46.579,-77.467c31.696,-5.904 55.813,22.479 46.938,51.909" style="fill:#ff8c7b;fill-rule:nonzero;"/><path d="M1025.24,331.661c20.812,-24.171 -5.213,-36.096 16.083,-52.875c-23.958,1.129 -63.404,-0.579 -70.442,-17.012c-7.041,-16.438 14.621,-38.659 32.659,-40.742c20.979,-2.425 16.316,23.379 16.316,23.379c0,0 79.746,-4.979 54.43,28.934c19.183,-1.155 13.904,29.862 -19.45,56.02c-8.359,3.009 -29.596,2.296 -29.596,2.296" style="fill:#1a2e35;fill-rule:nonzero;"/><path d="M1069.51,273.983c-0,-0 16.416,-4.863 15.85,-17.883c5.937,4.079 6.545,16.495 -15.85,17.883" style="fill:#1a2e35;fill-rule:nonzero;"/><path d="M1057.83,337.402c-5.3,6.513 -12.654,10.4 -18.938,11.546c-9.454,1.717 -11.683,-7.033 -6.962,-15.562c4.25,-7.679 14.292,-17.825 22.775,-15.675c8.354,2.112 9.183,12.246 3.125,19.691" style="fill:#ff8c7b;fill-rule:nonzero;"/><path d="M1005.49,305.931c-0.575,2.429 -2.333,4.133 -3.929,3.816c-1.596,-0.32 -2.425,-2.545 -1.854,-4.97c0.575,-2.425 2.329,-4.138 3.929,-3.817c1.596,0.321 2.425,2.546 1.854,4.971" style="fill:#1a2e35;fill-rule:nonzero;"/><path d="M977.875,300.415c-0.575,2.429 -2.334,4.137 -3.93,3.817c-1.595,-0.321 -2.429,-2.546 -1.854,-4.971c0.571,-2.425 2.329,-4.138 3.929,-3.817c1.596,0.321 2.425,2.546 1.855,4.971" style="fill:#1a2e35;fill-rule:nonzero;"/><path d="M986.369,303.378c-0,-0 -8.859,12.887 -16.571,18.42c3.375,4.867 11.158,4.505 11.158,4.505l5.413,-22.925Z" style="fill:#ff5551;fill-rule:nonzero;"/><path d="M989.396,334.833c9.788,0.771 15.738,-4.896 16.009,-5.163c0.287,-0.279 0.295,-0.741 0.012,-1.033c-0.279,-0.292 -0.742,-0.296 -1.033,-0.012c-0.067,0.062 -6.838,6.525 -17.579,4.37c-0.4,-0.083 -0.78,0.18 -0.859,0.575c-0.079,0.396 0.175,0.78 0.575,0.859c0.992,0.2 1.95,0.329 2.875,0.404" style="fill:#1a2e35;fill-rule:nonzero;"/><path d="M1016.16,299.213c0.237,0.017 0.483,-0.021 0.717,-0.125c0.737,-0.338 1.062,-1.204 0.729,-1.942c-3.321,-7.275 -10.046,-8.212 -10.329,-8.246c-0.746,-0.17 -1.534,0.459 -1.638,1.263c-0.1,0.804 0.463,1.533 1.263,1.637c0.279,0.042 5.433,0.846 8.037,6.563c0.233,0.5 0.704,0.808 1.221,0.85" style="fill:#1a2e35;fill-rule:nonzero;"/><path d="M971.031,283.83c0.446,0.142 0.954,0.071 1.35,-0.237c5.25,-4.088 10.462,-2.509 10.517,-2.492c0.77,0.242 1.591,-0.183 1.833,-0.954c0.246,-0.767 -0.179,-1.588 -0.946,-1.834c0,0 -0.004,-0.004 -0.008,-0.004c-0.271,-0.083 -6.742,-2.046 -13.192,2.975c-0.637,0.492 -0.754,1.417 -0.258,2.05c0.187,0.242 0.437,0.409 0.704,0.496" style="fill:#1a2e35;fill-rule:nonzero;"/><path d="M1091.78,429.718l3.483,4.738l3.116,4.429c2.063,2.942 3.946,5.913 5.888,8.875c3.817,5.925 7.379,11.971 10.858,18.046c6.884,12.187 13.23,24.662 18.825,37.508c2.913,6.359 5.438,12.921 8.1,19.4c2.342,6.638 4.9,13.159 6.955,19.913c4.55,13.308 7.82,27.125 10.833,40.946l0.346,1.575c1.275,5.858 0.016,11.741 -2.992,16.416c-5.237,8.088 -11.625,15.696 -18.954,22.471c-7.271,6.817 -15.85,12.479 -24.917,16.779c-9.117,4.259 -18.867,6.909 -28.587,7.921c-4.867,0.512 -9.734,0.567 -14.563,0.267c-2.421,-0.188 -4.829,-0.463 -7.25,-0.846c-1.212,-0.196 -2.425,-0.446 -3.667,-0.717l-4.191,-1.017c-1.034,-0.25 -1.663,-1.291 -1.413,-2.32l5.763,-24.159c0.046,-0.187 1.1,-0.254 1.75,-0.412l2.3,-0.467c1.562,-0.317 3.133,-0.692 4.692,-1.133c3.116,-0.821 6.15,-1.921 9.058,-3.129c5.808,-2.475 11.133,-5.529 15.775,-9.309c9.4,-7.362 16.396,-17.166 21.937,-28.529l-2.65,17.992c-3.57,-11.779 -7.345,-23.488 -11.966,-34.996c-4.5,-11.517 -9.546,-22.879 -15.021,-34.054c-5.488,-11.159 -11.288,-22.209 -17.571,-32.946c-3.096,-5.396 -6.358,-10.679 -9.592,-15.938l-4.958,-7.729l-2.471,-3.762l-2.271,-3.342l-0.829,-1.221c-8.412,-12.362 -5.204,-29.195 7.154,-37.6c12.071,-8.212 28.442,-5.304 37.03,6.35" style="fill:#1a2e35;fill-rule:nonzero;"/><path d="M1036.6,643.858l-8.996,14.687l38.908,-1.57c0,-0 10.188,-26.163 -3.741,-30.292l-5.375,1.492c-8.667,2.408 -16.1,8.012 -20.796,15.683" style="fill:#ff8c7b;fill-rule:nonzero;"/><path d="M1052.58,623.315c-2.375,1.592 -4.867,3.871 -7.092,7.13c10.579,5.741 25.35,25.345 25.35,25.345l3.404,-10.754c0.892,-2.816 0.483,-5.887 -1.108,-8.375l-6.638,-10.387c-3.004,-4.7 -9.287,-6.067 -13.916,-2.959" style="fill:#007cff;fill-rule:nonzero;"/><path d="M1031.03,681.12l32.063,-2.846l3.425,-21.3l-38.909,1.571l3.421,22.575Z" style="fill:#ff8c7b;fill-rule:nonzero;"/></g><g id="Clock"><path d="M637.736,172.435l-2.125,-3.584c6.096,-3.612 12.508,-6.8 19.067,-9.471l1.57,3.855c-6.366,2.6 -12.596,5.691 -18.512,9.2" style="fill:#007cff;fill-rule:nonzero;"/><path d="M576.896,245.817l-3.921,-1.417c9.859,-27.266 27.521,-50.758 51.075,-67.937l2.459,3.367c-22.884,16.683 -40.042,39.504 -49.613,65.987" style="fill:#007cff;fill-rule:nonzero;"/><path d="M837.4,293.487c0,70.83 -57.416,128.242 -128.241,128.242c-70.825,0 -128.242,-57.412 -128.242,-128.242c0,-70.825 57.417,-128.241 128.242,-128.241c70.825,-0 128.241,57.416 128.241,128.241" style="fill:#007cff;fill-rule:nonzero;"/><g opacity="0.6"><path d="M816.292,293.48c0,59.2 -47.945,107.145 -107.145,107.145c-28.038,0 -53.575,-10.77 -72.667,-28.42c-21.204,-19.571 -34.479,-47.609 -34.479,-78.725c-0,-59.15 47.996,-107.146 107.146,-107.146c31.358,-0 59.537,13.466 79.158,34.916c0.046,0 0.142,0.046 0.192,0.192c17.262,19.042 27.795,44.292 27.795,72.038" style="fill:#fff;fill-rule:nonzero;"/></g><path d="M816.292,293.48c0,59.2 -47.945,107.145 -107.145,107.145c-28.038,0 -53.575,-10.77 -72.667,-28.42c-17.646,-19.092 -28.467,-44.675 -28.467,-72.713c0,-59.15 47.992,-107.146 107.146,-107.146c28.325,0 53.958,10.917 73.146,28.904c0.046,0 0.142,0.046 0.192,0.192c17.262,19.042 27.795,44.292 27.795,72.038" style="fill:#fff;fill-rule:nonzero;"/><path d="M709.159,299.737c-1.6,0 -3.2,-0.608 -4.421,-1.829l-52.25,-52.25c-2.441,-2.437 -2.441,-6.396 0,-8.837c2.442,-2.442 6.4,-2.442 8.842,-0l47.829,47.829l27.629,-27.629c2.442,-2.442 6.396,-2.442 8.838,-0c2.442,2.437 2.442,6.4 -0,8.837l-32.046,32.05c-1.221,1.221 -2.821,1.829 -4.421,1.829" style="fill:#1a2e35;fill-rule:nonzero;"/></g></g></svg>